<svg width="135" height="46" viewBox="0 0 135 46" fill="none" xmlns="http://www.w3.org/2000/svg">
<path d="M17.952 23C17.4187 23 16.8853 22.7333 16.352 22.2C15.84 21.6453 15.3707 20.9627 14.944 20.152C14.5387 19.3413 14.0587 18.4667 13.504 17.528C12.9493 16.568 12.3947 15.672 11.84 14.84C11.2853 14.008 10.5813 13.304 9.728 12.728C8.87467 12.152 7.968 11.8427 7.008 11.8V15.768C7.008 18.072 7.072 19.64 7.2 20.472C7.34933 21.2827 7.552 21.7947 7.808 22.008C8.32 22.4133 9.10933 22.616 10.176 22.616L10.24 23H1.664L1.728 22.616C2.77333 22.616 3.54133 22.424 4.032 22.04C4.43733 21.72 4.672 20.6747 4.736 18.904C4.77867 18.2 4.8 17.1547 4.8 15.768V7.672C4.8 5.304 4.736 3.736 4.608 2.968C4.48 2.2 4.288 1.72 4.032 1.528C3.54133 1.16533 2.77333 0.983999 1.728 0.983999L1.664 0.599998H9.088C14.464 0.599998 17.152 2.41333 17.152 6.04C17.152 7.59733 16.5973 8.90933 15.488 9.976C14.4 11.0213 13.0773 11.6293 11.52 11.8C13.0773 12.7173 14.5173 14.4027 15.84 16.856C16.352 17.816 16.896 18.7333 17.472 19.608C18.7307 21.6133 20.352 22.616 22.336 22.616L22.4 23H17.952ZM7.008 1.336V11.16H9.024C10.6453 11.16 11.9893 10.744 13.056 9.912C14.1227 9.08 14.656 7.84267 14.656 6.2C14.656 2.95733 12.8 1.336 9.088 1.336H7.008ZM22.0925 15.448C22.0925 13.208 22.7325 11.3307 24.0125 9.816C25.2925 8.30133 27.0312 7.544 29.2285 7.544C31.4258 7.544 33.1965 8.30133 34.5405 9.816C35.8845 11.3307 36.5565 13.208 36.5565 15.448C36.5565 17.688 35.9058 19.5653 34.6045 21.08C33.3245 22.5733 31.5858 23.32 29.3885 23.32C27.1912 23.32 25.4205 22.5627 24.0765 21.048C22.7538 19.5333 22.0925 17.6667 22.0925 15.448ZM25.7725 20.632C26.6258 21.9973 27.8312 22.68 29.3885 22.68C30.9458 22.68 32.1192 22.008 32.9085 20.664C33.7192 19.32 34.1245 17.592 34.1245 15.48C34.1245 13.3467 33.6978 11.5973 32.8445 10.232C31.9912 8.86667 30.7858 8.184 29.2285 8.184C27.6925 8.184 26.5192 8.86667 25.7085 10.232C24.9192 11.576 24.5245 13.304 24.5245 15.416C24.5245 17.528 24.9405 19.2667 25.7725 20.632ZM53.6198 13.272C53.8118 11.736 54.3024 10.4027 55.0918 9.272C55.9024 8.12 57.0224 7.544 58.4518 7.544C59.8811 7.544 60.9904 7.98133 61.7798 8.856C62.5691 9.73067 62.9638 11 62.9638 12.664V17.72C62.9638 19.9387 63.1024 21.3147 63.3798 21.848C63.6784 22.36 64.4464 22.616 65.6838 22.616L65.7478 23H58.1958L58.2598 22.616C59.4331 22.616 60.1371 22.3493 60.3718 21.816C60.6064 21.2827 60.7238 19.8213 60.7238 17.432V12.984C60.7238 11.512 60.5104 10.4027 60.0838 9.656C59.6784 8.90933 59.0171 8.536 58.0998 8.536C57.1824 8.536 56.4251 8.87733 55.8278 9.56C55.2304 10.2213 54.7824 11.064 54.4838 12.088C53.9078 14.072 53.6198 16.0667 53.6198 18.072C53.6198 20.0773 53.7478 21.336 54.0037 21.848C54.2811 22.36 55.0491 22.616 56.3078 22.616L56.3718 23H48.8518L48.9158 22.616C50.0891 22.616 50.7931 22.3493 51.0278 21.816C51.2624 21.2827 51.3798 19.8213 51.3798 17.432V12.984C51.3798 11.512 51.1664 10.4027 50.7398 9.656C50.3344 8.90933 49.6731 8.536 48.7558 8.536C47.8384 8.536 47.0811 8.87733 46.4838 9.56C45.8864 10.2213 45.4384 11.064 45.1398 12.088C44.5638 14.072 44.2758 16.0667 44.2758 18.072C44.2758 20.0773 44.4038 21.336 44.6598 21.848C44.9371 22.36 45.7051 22.616 46.9638 22.616L47.0278 23H39.2198L39.2838 22.616C40.5638 22.616 41.3424 22.36 41.6198 21.848C41.8971 21.3147 42.0358 19.9173 42.0358 17.656V15.096C42.0358 11.896 41.8758 9.96533 41.5558 9.304C41.4491 9.06933 41.2571 8.856 40.9798 8.664C40.7238 8.472 40.4358 8.35467 40.1158 8.312C39.8171 8.26933 39.4011 8.248 38.8678 8.248L38.8038 7.896C40.6598 7.66133 42.4838 7.544 44.2758 7.544V13.272C44.4678 11.736 44.9584 10.4027 45.7478 9.272C46.5584 8.12 47.6784 7.544 49.1078 7.544C52.1158 7.544 53.6198 9.45333 53.6198 13.272ZM79.9028 12.664V15.896C79.9028 18.264 79.9774 19.8213 80.1268 20.568C80.2761 21.2933 80.6388 21.656 81.2148 21.656C81.5774 21.656 82.0574 21.5067 82.6548 21.208L82.8148 21.528C82.6441 21.656 82.4201 21.816 82.1428 22.008C81.8654 22.1787 81.3001 22.4133 80.4468 22.712C79.5934 23.0107 78.7721 23.16 77.9828 23.16C77.7694 22.264 77.6628 20.8347 77.6628 18.872C77.1934 20.1947 76.5748 21.272 75.8068 22.104C75.0601 22.9147 74.0148 23.32 72.6708 23.32C71.3268 23.32 70.2601 22.968 69.4708 22.264C68.7028 21.5387 68.3188 20.5573 68.3188 19.32C68.3188 15.8853 71.4334 14.1573 77.6628 14.136V12.984C77.6628 11.448 77.4388 10.2747 76.9908 9.464C76.5428 8.65333 75.7108 8.248 74.4948 8.248C73.8121 8.248 73.2574 8.41867 72.8308 8.76C72.4041 9.10133 72.1161 9.47467 71.9668 9.88C71.6041 10.9893 71.0601 11.544 70.3348 11.544C69.6308 11.544 69.2788 11.1493 69.2788 10.36C69.2788 9.54933 69.8121 8.87733 70.8788 8.344C71.9454 7.81067 73.2361 7.544 74.7508 7.544C76.2654 7.544 77.5028 7.98133 78.4628 8.856C79.4228 9.70933 79.9028 10.9787 79.9028 12.664ZM70.7508 19.448C70.7508 20.28 70.9534 20.9733 71.3588 21.528C71.7641 22.0613 72.4041 22.328 73.2788 22.328C74.1748 22.328 74.9854 21.9013 75.7108 21.048C76.4361 20.1733 76.9268 19.2133 77.1828 18.168C77.4601 17.1013 77.6201 16.0027 77.6628 14.872C75.2948 14.8933 73.5454 15.3307 72.4148 16.184C71.3054 17.0373 70.7508 18.1253 70.7508 19.448ZM90.057 7.544V13.272C90.249 11.736 90.7823 10.4027 91.657 9.272C92.5317 8.12 93.6943 7.544 95.145 7.544C98.409 7.544 100.041 9.25067 100.041 12.664V17.72C100.041 19.9387 100.18 21.3147 100.457 21.848C100.756 22.36 101.524 22.616 102.761 22.616L102.825 23H95.049L95.113 22.616C96.393 22.616 97.161 22.3493 97.417 21.816C97.673 21.2827 97.801 19.8213 97.801 17.432V12.984C97.801 11.512 97.5663 10.4027 97.097 9.656C96.649 8.90933 95.9237 8.536 94.921 8.536C93.9397 8.536 93.1183 8.87733 92.457 9.56C91.7957 10.2213 91.305 11.064 90.985 12.088C90.3663 14.072 90.057 16.0667 90.057 18.072C90.057 20.0773 90.185 21.336 90.441 21.848C90.7183 22.36 91.4863 22.616 92.745 22.616L92.809 23H85.001L85.065 22.616C86.345 22.616 87.1237 22.36 87.401 21.848C87.6783 21.3147 87.817 19.9173 87.817 17.656V15.096C87.817 11.896 87.657 9.96533 87.337 9.304C87.2303 9.06933 87.0383 8.856 86.761 8.664C86.505 8.472 86.217 8.35467 85.897 8.312C85.5983 8.26933 85.1823 8.248 84.649 8.248L84.585 7.896C86.441 7.66133 88.265 7.544 90.057 7.544ZM111.909 23.32C110.032 23.32 108.421 22.6267 107.077 21.24C105.733 19.8533 105.061 17.976 105.061 15.608C105.061 13.2187 105.669 11.2773 106.885 9.784C108.123 8.29067 109.872 7.544 112.133 7.544C113.541 7.544 114.768 7.77867 115.813 8.248C116.859 8.696 117.381 9.32533 117.381 10.136C117.381 10.8613 116.987 11.224 116.197 11.224C115.792 11.224 115.451 11.064 115.173 10.744C114.917 10.424 114.715 10.0827 114.565 9.72C114.437 9.336 114.171 8.984 113.765 8.664C113.36 8.344 112.827 8.184 112.165 8.184C110.629 8.184 109.467 8.824 108.677 10.104C107.888 11.384 107.493 13.144 107.493 15.384C107.493 17.6027 107.963 19.3307 108.901 20.568C109.84 21.784 111.003 22.392 112.389 22.392C114.501 22.392 116.005 21.5387 116.901 19.832L117.381 20.088C116.293 22.2427 114.469 23.32 111.909 23.32ZM121.292 29.72C122.358 29.72 123.244 29.304 123.948 28.472C124.673 27.6613 125.409 26.3387 126.156 24.504L121.388 12.472C120.684 10.68 120.044 9.528 119.468 9.016C118.913 8.504 118.241 8.248 117.451 8.248L117.387 7.864H125.324L125.26 8.248C124.513 8.248 123.99 8.36533 123.692 8.6C123.414 8.83467 123.276 9.19733 123.276 9.688C123.276 10.6693 123.777 12.4187 124.78 14.936L127.244 21.144L129.74 13.464C130.23 11.928 130.476 10.7653 130.476 9.976C130.476 8.824 129.729 8.248 128.236 8.248L128.172 7.864H134.188L134.124 8.248C133.249 8.248 132.63 8.536 132.268 9.112C131.926 9.66667 131.276 11.4053 130.316 14.328L127.436 23.096C126.497 25.976 125.398 28.1947 124.14 29.752C122.881 31.3093 121.569 32.088 120.204 32.088C119.585 32.088 119.073 31.96 118.668 31.704C118.262 31.4693 118.059 31.128 118.059 30.68C118.059 30.2533 118.188 29.912 118.444 29.656C118.721 29.4213 119.009 29.304 119.308 29.304C119.628 29.304 119.98 29.368 120.364 29.496C120.748 29.6453 121.057 29.72 121.292 29.72Z" fill="#D98600"/>
<path d="M6.412 34.41C6.412 34.3367 6.44867 34.3 6.522 34.3H7.083C7.15633 34.3 7.193 34.3367 7.193 34.41V41.89C7.193 41.9633 7.15633 42 7.083 42H6.522C6.44867 42 6.412 41.9633 6.412 41.89V38.513C6.412 38.4837 6.39733 38.469 6.368 38.469H2.859C2.82967 38.469 2.815 38.4837 2.815 38.513V41.89C2.815 41.9633 2.77833 42 2.705 42H2.144C2.07067 42 2.034 41.9633 2.034 41.89V34.41C2.034 34.3367 2.07067 34.3 2.144 34.3H2.705C2.77833 34.3 2.815 34.3367 2.815 34.41V37.743C2.815 37.7723 2.82967 37.787 2.859 37.787H6.368C6.39733 37.787 6.412 37.7723 6.412 37.743V34.41ZM16.6073 42.088C16.0866 42.088 15.6283 41.9817 15.2323 41.769C14.8363 41.5563 14.5283 41.2593 14.3083 40.878C14.0956 40.4893 13.9893 40.042 13.9893 39.536V36.764C13.9893 36.258 14.0956 35.8143 14.3083 35.433C14.5283 35.0443 14.8363 34.7437 15.2323 34.531C15.6283 34.3183 16.0866 34.212 16.6073 34.212C17.1279 34.212 17.5863 34.3183 17.9823 34.531C18.3856 34.7437 18.6936 35.0443 18.9063 35.433C19.1263 35.8143 19.2363 36.258 19.2363 36.764V39.536C19.2363 40.042 19.1263 40.4893 18.9063 40.878C18.6936 41.2593 18.3856 41.5563 17.9823 41.769C17.5863 41.9817 17.1279 42.088 16.6073 42.088ZM16.6073 41.417C17.1646 41.417 17.6119 41.2483 17.9493 40.911C18.2866 40.5737 18.4553 40.1263 18.4553 39.569V36.753C18.4553 36.1957 18.2866 35.7483 17.9493 35.411C17.6119 35.0663 17.1646 34.894 16.6073 34.894C16.0573 34.894 15.6136 35.0663 15.2763 35.411C14.9389 35.7483 14.7703 36.1957 14.7703 36.753V39.569C14.7703 40.1263 14.9389 40.5737 15.2763 40.911C15.6136 41.2483 16.0573 41.417 16.6073 41.417ZM30.6194 34.3C30.6927 34.3 30.7294 34.3367 30.7294 34.41V34.883C30.7294 34.9563 30.6927 34.993 30.6194 34.993H28.4634C28.434 34.993 28.4194 35.0077 28.4194 35.037V41.89C28.4194 41.9633 28.3827 42 28.3094 42H27.7484C27.675 42 27.6384 41.9633 27.6384 41.89V35.037C27.6384 35.0077 27.6237 34.993 27.5944 34.993H25.5264C25.453 34.993 25.4164 34.9563 25.4164 34.883V34.41C25.4164 34.3367 25.453 34.3 25.5264 34.3H30.6194ZM42.2231 34.872C42.2231 34.9453 42.1864 34.982 42.1131 34.982H38.0651C38.0357 34.982 38.0211 34.9967 38.0211 35.026V37.743C38.0211 37.7723 38.0357 37.787 38.0651 37.787H40.9031C40.9764 37.787 41.0131 37.8237 41.0131 37.897V38.359C41.0131 38.4323 40.9764 38.469 40.9031 38.469H38.0651C38.0357 38.469 38.0211 38.4837 38.0211 38.513V41.274C38.0211 41.3033 38.0357 41.318 38.0651 41.318H42.1131C42.1864 41.318 42.2231 41.3547 42.2231 41.428V41.89C42.2231 41.9633 42.1864 42 42.1131 42H37.3501C37.2767 42 37.2401 41.9633 37.2401 41.89V34.41C37.2401 34.3367 37.2767 34.3 37.3501 34.3H42.1131C42.1864 34.3 42.2231 34.3367 42.2231 34.41V34.872ZM49.0102 42C48.9369 42 48.9002 41.9633 48.9002 41.89V34.41C48.9002 34.3367 48.9369 34.3 49.0102 34.3H49.5712C49.6445 34.3 49.6812 34.3367 49.6812 34.41V41.274C49.6812 41.3033 49.6959 41.318 49.7252 41.318H53.6082C53.6815 41.318 53.7182 41.3547 53.7182 41.428V41.89C53.7182 41.9633 53.6815 42 53.6082 42H49.0102ZM67.4643 42C67.391 42 67.3543 41.9633 67.3543 41.89V34.41C67.3543 34.3367 67.391 34.3 67.4643 34.3H68.0253C68.0986 34.3 68.1353 34.3367 68.1353 34.41V41.274C68.1353 41.3033 68.15 41.318 68.1793 41.318H72.0623C72.1356 41.318 72.1723 41.3547 72.1723 41.428V41.89C72.1723 41.9633 72.1356 42 72.0623 42H67.4643ZM81.1363 42.088C80.6229 42.088 80.1683 41.9853 79.7723 41.78C79.3763 41.5747 79.0683 41.2887 78.8483 40.922C78.6283 40.548 78.5183 40.1153 78.5183 39.624V34.41C78.5183 34.3367 78.5549 34.3 78.6283 34.3H79.1893C79.2626 34.3 79.2993 34.3367 79.2993 34.41V39.646C79.2993 40.1667 79.4679 40.592 79.8053 40.922C80.1426 41.2447 80.5863 41.406 81.1363 41.406C81.6863 41.406 82.1299 41.2447 82.4673 40.922C82.8046 40.592 82.9733 40.1667 82.9733 39.646V34.41C82.9733 34.3367 83.0099 34.3 83.0833 34.3H83.6443C83.7176 34.3 83.7543 34.3367 83.7543 34.41V39.624C83.7543 40.1153 83.6443 40.548 83.4243 40.922C83.2116 41.2887 82.9073 41.5747 82.5113 41.78C82.1153 41.9853 81.6569 42.088 81.1363 42.088ZM90.2111 42C90.1671 42 90.1377 41.989 90.1231 41.967C90.1157 41.9377 90.1231 41.9047 90.1451 41.868L92.4551 38.183C92.4697 38.161 92.4697 38.139 92.4551 38.117L90.1451 34.432C90.1304 34.4027 90.1231 34.3807 90.1231 34.366C90.1231 34.322 90.1524 34.3 90.2111 34.3H90.8271C90.8784 34.3 90.9224 34.3257 90.9591 34.377L92.9171 37.512C92.9244 37.5193 92.9354 37.523 92.9501 37.523C92.9647 37.523 92.9757 37.5193 92.9831 37.512L94.9301 34.377C94.9667 34.3257 95.0107 34.3 95.0621 34.3H95.6671C95.7111 34.3 95.7367 34.3147 95.7441 34.344C95.7587 34.366 95.7551 34.3953 95.7331 34.432L93.4341 38.128C93.4267 38.15 93.4267 38.172 93.4341 38.194L95.7331 41.868C95.7477 41.8973 95.7551 41.9193 95.7551 41.934C95.7551 41.978 95.7257 42 95.6671 42H95.0621C95.0107 42 94.9667 41.9743 94.9301 41.923L92.9831 38.799C92.9757 38.7843 92.9647 38.777 92.9501 38.777C92.9354 38.777 92.9244 38.7843 92.9171 38.799L90.9591 41.923C90.9224 41.9743 90.8784 42 90.8271 42H90.2111ZM104.747 42.088C104.233 42.088 103.779 41.9853 103.383 41.78C102.987 41.5747 102.679 41.2887 102.459 40.922C102.239 40.548 102.129 40.1153 102.129 39.624V34.41C102.129 34.3367 102.165 34.3 102.239 34.3H102.8C102.873 34.3 102.91 34.3367 102.91 34.41V39.646C102.91 40.1667 103.078 40.592 103.416 40.922C103.753 41.2447 104.197 41.406 104.747 41.406C105.297 41.406 105.74 41.2447 106.078 40.922C106.415 40.592 106.584 40.1667 106.584 39.646V34.41C106.584 34.3367 106.62 34.3 106.694 34.3H107.255C107.328 34.3 107.365 34.3367 107.365 34.41V39.624C107.365 40.1153 107.255 40.548 107.035 40.922C106.822 41.2887 106.518 41.5747 106.122 41.78C105.726 41.9853 105.267 42.088 104.747 42.088ZM118.837 42C118.771 42 118.727 41.9743 118.705 41.923L117.088 38.513C117.081 38.491 117.066 38.48 117.044 38.48H115.174C115.145 38.48 115.13 38.4947 115.13 38.524V41.89C115.13 41.9633 115.094 42 115.02 42H114.459C114.386 42 114.349 41.9633 114.349 41.89V34.41C114.349 34.3367 114.386 34.3 114.459 34.3H117.308C117.939 34.3 118.449 34.498 118.837 34.894C119.226 35.2827 119.42 35.7923 119.42 36.423C119.42 36.9363 119.281 37.3727 119.002 37.732C118.724 38.0913 118.346 38.3223 117.869 38.425C117.84 38.4397 117.833 38.458 117.847 38.48L119.497 41.868C119.505 41.8827 119.508 41.901 119.508 41.923C119.508 41.9743 119.479 42 119.42 42H118.837ZM115.174 34.982C115.145 34.982 115.13 34.9967 115.13 35.026V37.809C115.13 37.8383 115.145 37.853 115.174 37.853H117.22C117.646 37.853 117.99 37.721 118.254 37.457C118.518 37.193 118.65 36.8483 118.65 36.423C118.65 35.9977 118.518 35.653 118.254 35.389C117.99 35.1177 117.646 34.982 117.22 34.982H115.174ZM127.76 41.989C127.687 41.989 127.65 41.9523 127.65 41.879V38.623C127.65 38.5937 127.646 38.5753 127.639 38.568L125.351 34.432C125.336 34.4027 125.329 34.3807 125.329 34.366C125.329 34.322 125.362 34.3 125.428 34.3H126.022C126.088 34.3 126.132 34.3257 126.154 34.377L128.002 37.732C128.009 37.7393 128.02 37.743 128.035 37.743C128.05 37.743 128.061 37.7393 128.068 37.732L129.927 34.377C129.956 34.3257 130 34.3 130.059 34.3H130.653C130.697 34.3 130.726 34.3147 130.741 34.344C130.756 34.366 130.752 34.3953 130.73 34.432L128.442 38.568C128.435 38.5753 128.431 38.5937 128.431 38.623V41.879C128.431 41.9523 128.394 41.989 128.321 41.989H127.76Z" fill="#222222"/>
</svg>
